<?xml version="1.0" standalone="no"?>
<!DOCTYPE svg PUBLIC "-//W3C//DTD SVG 20010904//EN"
 "http://www.w3.org/TR/2001/REC-SVG-20010904/DTD/svg10.dtd">
<svg version="1.0" xmlns="http://www.w3.org/2000/svg"
 width="212.000000pt" height="98.000000pt" viewBox="0 0 212.000000 98.000000"
 preserveAspectRatio="xMidYMid meet">
<metadata>
Created by potrace 1.16, written by Peter Selinger 2001-2019
</metadata>
<g transform="translate(0.000000,98.000000) scale(0.100000,-0.100000)"
fill="#000000" stroke="none">
<path d="M780 745 l0 -135 73 1 c39 0 88 5 107 12 74 26 104 128 57 198 -28
43 -71 58 -164 58 l-73 1 0 -135z m170 55 c12 -12 20 -33 20 -55 0 -48 -29
-75 -80 -75 l-40 0 0 75 0 75 40 0 c27 0 47 -7 60 -20z"/>
<path d="M1145 870 c-83 -34 -103 -156 -36 -223 25 -26 39 -31 88 -34 45 -3
65 0 89 15 34 22 64 76 64 117 0 41 -30 95 -64 116 -32 20 -105 25 -141 9z
m102 -55 c48 -34 36 -130 -19 -149 -58 -20 -112 47 -88 109 20 53 65 69 107
40z"/>
<path d="M1487 873 c-4 -3 -7 -19 -7 -35 l0 -28 85 0 c72 0 88 -3 105 -20 23
-23 25 -39 8 -63 -10 -13 -33 -17 -103 -19 l-90 -3 0 -35 c0 -33 2 -35 35 -38
19 -2 63 -1 98 3 89 9 114 33 120 111 5 71 -17 107 -76 124 -41 11 -165 14
-175 3z"/>
<path d="M162 604 c-32 -22 -43 -57 -31 -93 10 -29 32 -42 99 -59 25 -6 35
-14 35 -28 0 -24 -42 -31 -88 -14 -27 9 -34 8 -44 -7 -7 -9 -13 -20 -13 -24 0
-12 61 -29 106 -29 55 0 89 15 103 47 27 59 3 92 -84 117 -56 17 -65 30 -32
50 11 7 28 7 56 0 37 -10 40 -9 50 13 10 21 8 25 -15 33 -39 15 -117 12 -142
-6z"/>
<path d="M380 516 c0 -96 2 -107 23 -132 20 -23 34 -28 84 -32 52 -4 63 -1 87
19 33 29 45 78 46 177 l0 72 -35 0 -35 0 0 -88 c0 -97 -14 -132 -54 -132 -39
0 -46 18 -46 122 l0 98 -35 0 -35 0 0 -104z"/>
<path d="M1506 578 c-53 -82 -15 -194 75 -218 52 -14 120 14 143 59 20 38 20
113 1 151 -18 35 -26 37 -49 11 -17 -18 -17 -21 -1 -45 33 -50 -1 -106 -65
-106 -29 0 -43 6 -54 22 -18 26 -20 61 -6 89 8 13 7 25 0 39 -14 26 -26 25
-44 -2z"/>
<path d="M50 155 l0 -105 1010 0 1010 0 0 105 0 105 -1010 0 -1010 0 0 -105z"/>
</g>
</svg>
